<?xml version="1.0" standalone="no"?><!DOCTYPE svg PUBLIC "-//W3C//DTD SVG 1.1//EN" "http://www.w3.org/Graphics/SVG/1.1/DTD/svg11.dtd"><svg t="1745293400222" class="icon" viewBox="0 0 1141 1024" version="1.1" xmlns="http://www.w3.org/2000/svg" p-id="1728" xmlns:xlink="http://www.w3.org/1999/xlink" width="222.8515625" height="200"><path d="M587.37482188 148.44674375l354.74437406 318.90838219v503.05810781H186.05430594V467.35512594z" fill="#EEEEFC" p-id="1729"></path><path d="M562.37997596 225.48768194l292.30386563 262.775919a17.52728406 17.52728406 0 0 1-5.81435572-13.04633425v414.50710712a17.54482853 17.54482853 0 0 1 17.54482853-17.54482854H243.42902406a17.54482853 17.54482853 0 0 1 17.54482852 17.54482853V475.21375734a17.56588237 17.56588237 0 0 1-6.62843593 13.73760079l330.67440676-262.77942757a17.53079264 17.53079264 0 0 1-22.63984745-0.68424862zM225.88419552 475.21375734v414.50710788a17.54482853 17.54482853 0 0 0 17.54482854 17.54482852h622.98178176a17.54482853 17.54482853 0 0 0 17.54482853-17.54482853V475.21375734a17.55886443 17.55886443 0 0 0-5.81435649-13.04633427l-292.30035704-262.77942836a17.53430199 17.53430199 0 0 0-22.64335606-0.68424859l-330.68493329 262.775919a17.53781058 17.53781058 0 0 0-6.62843595 13.73409222z" fill="#6E6E96" p-id="1730"></path><path d="M570.67166206 173.44971948L407.27667125 309.81865647V222.91210108H284.01021285v189.78943103L165.61770846 523.14973834l80.62550586 86.91357334 320.8879012-286.00527241 311.10139565 279.02944851 79.93774866-79.93774944z" fill="#FF9494" p-id="1731"></path><path d="M559.42893536 159.97879986L396.0374539 296.34773686a17.54482853 17.54482853 0 0 1 28.78755524 13.47442819V222.91210108a17.54482853 17.54482853 0 0 0-17.54482853-17.54482853H284.01021285a17.54482853 17.54482853 0 0 0-17.54482853 17.54482853v189.78943103a17.54482853 17.54482853 0 0 1 5.57574632-12.8287787l-118.39250439 110.45522418a17.54833789 17.54833789 0 0 0-0.89478621 24.76277195l80.62550585 86.91708192a17.54482853 17.54482853 0 0 0 24.53468909 1.16497598l320.88790042-286.0052724a17.55535583 17.55535583 0 0 1-23.39076538-0.03859832l311.10139563 279.03646647a17.55184647 17.55184647 0 0 0 24.12063026-0.65968541l79.93424008-79.9307315a17.54482853 17.54482853 0 0 0-0.64564952-25.42947452L582.42318871 160.42443906a17.54482853 17.54482853 0 0 0-22.99425335-0.4456392z m386.33713113 350.76674514l-79.93774945 79.93774867a17.53781058 17.53781058 0 0 1 24.12063103-0.6596854L578.84755244 310.99415977a17.55184647 17.55184647 0 0 0-23.39076616-0.03859832L234.56888508 596.96434243a17.54482853 17.54482853 0 0 1 24.53468908 1.16497676L178.47806753 511.21574586a17.54482853 17.54482853 0 0 1-0.89478622 24.76277196L295.97578648 425.52680222a17.53781058 17.53781058 0 0 0 5.57925568-12.8287787V222.91210108a17.54482853 17.54482853 0 0 1-17.54482931 17.54482854h123.2664584a17.54482853 17.54482853 0 0 1-17.54482853-17.54482854v86.91006398a17.54482853 17.54482853 0 0 0 28.78404587 13.47091961l163.39499083-136.36893621a17.54482853 17.54482853 0 0 1-22.99776195-0.4456392l387.50210712 349.70001963a17.51675674 17.51675674 0 0 1-5.77926598-12.57613339 17.52728406 17.52728406 0 0 1 5.13010788-12.8568505z" fill="#6E6E96" p-id="1732"></path><path d="M415.77889497 889.96298397V739.54414795c0-82.72386793 63.53333448-150.41532667 141.19376461-150.41532589s141.19376461 67.69145874 141.1937646 150.41532589v150.41883602H415.77889497z" fill="#93A5CC" p-id="1733"></path><path d="M433.32372427 889.96298397V739.54414795c0-73.26720506 55.46973046-132.87049736 123.64893531-132.87049737 68.18622279 0 123.64893531 59.6032923 123.64893531 132.87049737v150.41883602l17.54482929-17.5448293H415.77889497l17.5448293 17.5448293z m282.39103781 0V739.54414795c0-92.61915127-71.21095144-167.96015519-158.73859314-167.96015519s-158.73859314 75.34802187-158.73859314 167.96015519v167.96366455h317.48069486v-17.54482853z" fill="#6E6E96" p-id="1734"></path><path d="M260.97385258 832.94228971h587.89212393v56.77857551H260.97385258zM260.97385258 668.02089906l305.06948359-273.69582019 282.81913176 252.64202549 16.96584911-56.29082863-298.69720152-266.61823646-309.21357196 281.55590375z" fill="#6E6E96" p-id="1735"></path><path d="M952.2120425 550.65304531l-377.56187156-338.64266531-389.43906469 347.10873187-73.55001844-79.28633249L87.3616025 502.50122656l97.84950375 105.48088782 389.43906469-347.10873188 377.56187156 338.63840625 97.01482031-97.01056219-25.683525-23.1794775z" fill="#6E6E96" p-id="1736"></path></svg>