<?xml version="1.0" standalone="no"?><!DOCTYPE svg PUBLIC "-//W3C//DTD SVG 1.1//EN" "http://www.w3.org/Graphics/SVG/1.1/DTD/svg11.dtd"><svg t="1745293408325" class="icon" viewBox="0 0 1024 1024" version="1.1" xmlns="http://www.w3.org/2000/svg" p-id="1896" xmlns:xlink="http://www.w3.org/1999/xlink" width="200" height="200"><path d="M837.27701333 544.11264h-37.41013333c0-0.60074667 0.05461333-1.20149333 0.05461333-1.80224 0-99.23242667-80.44544-179.73248-179.73248-179.73248-99.23242667 0-179.73248 80.44544-179.73248 179.73248 0 0.60074667 0.05461333 1.20149333 0.05461334 1.80224h-39.26698667c-98.90474667 0-179.13173333 80.17237333-179.13173333 179.13173333 0 98.90474667 80.17237333 179.13173333 179.13173333 179.13173334h436.03285333c98.90474667 0 179.13173333-80.17237333 179.13173334-179.13173334 0-98.90474667-80.17237333-179.13173333-179.13173334-179.13173333z" fill="#80B7F9" p-id="1897"></path><path d="M465.75391476 401.19270211m-220.4650458 0a220.46504581 220.46504581 0 1 0 440.93009161 0 220.46504581 220.46504581 0 1 0-440.93009161 0Z" fill="#80B7F9" p-id="1898"></path><path d="M375.36730072 586.31296949a205.520896 205.520896 0 0 0 99.43995734 25.51534934c114.17827555 0 206.68598045-92.56595911 206.68598043-206.68598045 0-25.28233245-4.54382933-49.51608889-12.8741831-71.94396445-54.17642667 33.84570311-90.23579022 94.02231467-90.23579023 162.64578845 0 0.64079645 0.05825422 1.28159289 0.05825423 1.92238933h-41.88478578c-67.80791467-0.05825422-127.28547555 35.30205867-161.18943289 88.54641778z" fill="#3E8BF8" p-id="1899"></path><path d="M168.79719156 431.88879361h-41.07311028c-27.46492397 0-49.71026963-22.24534565-49.71026962-49.71026963s22.24534565-49.71026963 49.71026962-49.71026963h41.07311028c27.46492397 0 49.71026963 22.24534565 49.71026962 49.71026963s-22.24534565 49.71026963-49.71026962 49.71026963zM465.25681206 157.11527823c-27.46492397 0-49.71026963-22.24534565-49.71026963-49.71026963v-41.07311027c0-27.46492397 22.24534565-49.71026963 49.71026963-49.71026964s49.71026963 22.24534565 49.71026964 49.71026964v41.07311027c0 27.46492397-22.24534565 49.71026963-49.71026964 49.71026963zM215.3384315 683.17420659c-12.73825659 0-25.41437535-4.84675129-35.17001576-14.54025386a49.61706288 49.61706288 0 0 1 0-70.2778937l29.08050774-29.08050773c19.38700515-19.44914299 50.89088853-19.38700515 70.27789368 0a49.61706288 49.61706288 0 0 1 0 70.27789369l-29.08050773 29.08050774a49.44307693 49.44307693 0 0 1-35.10787793 14.54025386zM659.99679334 229.81654756c-12.73825659 0-25.41437535-4.84675129-35.17001576-14.54025386-19.38700515-19.44914299-19.38700515-50.89088853 0-70.27789369l29.08050773-29.08050773c19.44914299-19.38700515 50.89088853-19.38700515 70.27789369 0 19.38700515 19.44914299 19.38700515 50.89088853 0 70.27789368l-29.08050774 29.08050774a49.54871125 49.54871125 0 0 1-35.10787792 14.54025386zM266.78856057 229.81654756c-12.73825659 0-25.41437535-4.84675129-35.17001576-14.54025386l-29.08050773-29.08050774c-19.38700515-19.38700515-19.38700515-50.89088853 0-70.27789368s50.89088853-19.38700515 70.27789368 0l29.08050774 29.08050773c19.38700515 19.38700515 19.38700515 50.89088853 0 70.27789369a49.33744261 49.33744261 0 0 1-35.10787793 14.54025386z" fill="#80B7F9" p-id="1900"></path><path d="M729.4976 810.0352H497.664c-22.6304 0-40.96-18.3296-40.96-40.96s18.3296-40.96 40.96-40.96h231.8336c22.6304 0 40.96 18.3296 40.96 40.96s-18.3808 40.96-40.96 40.96z" fill="#FFFFFF" p-id="1901"></path></svg>